<mxfile host="app.diagrams.net" modified="2020-11-26T06:37:13.698Z" agent="5.0 (Windows NT 6.1; Win64; x64) AppleWebKit/537.36 (KHTML, like Gecko) Chrome/86.0.4240.198 Safari/537.36" etag="EV_iV5rcZK_xe7YWCfnN" version="13.10.2" type="github">
  <diagram id="qdDALh3xGbTS9kaBeQjg" name="Page-1">
    <mxGraphModel dx="868" dy="425" grid="1" gridSize="10" guides="1" tooltips="1" connect="1" arrows="1" fold="1" page="1" pageScale="1" pageWidth="1169" pageHeight="827" math="0" shadow="0">
      <root>
        <mxCell id="0" />
        <mxCell id="1" parent="0" />
        <mxCell id="Wu3IxM2YiDaM1ognSNvo-1" style="edgeStyle=orthogonalEdgeStyle;rounded=0;orthogonalLoop=1;jettySize=auto;html=1;exitX=0.5;exitY=1;exitDx=0;exitDy=0;strokeColor=#D5E8D4;" edge="1" parent="1" source="Wu3IxM2YiDaM1ognSNvo-3">
          <mxGeometry relative="1" as="geometry">
            <mxPoint x="260" y="170" as="targetPoint" />
          </mxGeometry>
        </mxCell>
        <mxCell id="Wu3IxM2YiDaM1ognSNvo-2" style="edgeStyle=orthogonalEdgeStyle;rounded=0;orthogonalLoop=1;jettySize=auto;html=1;exitX=0.5;exitY=1;exitDx=0;exitDy=0;" edge="1" parent="1" source="Wu3IxM2YiDaM1ognSNvo-3" target="Wu3IxM2YiDaM1ognSNvo-6">
          <mxGeometry relative="1" as="geometry" />
        </mxCell>
        <mxCell id="Wu3IxM2YiDaM1ognSNvo-3" value="&lt;font style=&quot;font-size: 18px&quot;&gt;&lt;b&gt;固定污染源&lt;br&gt;排放量计算&lt;/b&gt;&lt;/font&gt;" style="rounded=1;whiteSpace=wrap;html=1;fillColor=#66FFFF;" vertex="1" parent="1">
          <mxGeometry x="354" y="70" width="120" height="60" as="geometry" />
        </mxCell>
        <mxCell id="Wu3IxM2YiDaM1ognSNvo-4" style="edgeStyle=orthogonalEdgeStyle;rounded=0;orthogonalLoop=1;jettySize=auto;html=1;exitX=0.5;exitY=1;exitDx=0;exitDy=0;entryX=0.5;entryY=0;entryDx=0;entryDy=0;" edge="1" parent="1" source="Wu3IxM2YiDaM1ognSNvo-6" target="Wu3IxM2YiDaM1ognSNvo-10">
          <mxGeometry relative="1" as="geometry" />
        </mxCell>
        <mxCell id="Wu3IxM2YiDaM1ognSNvo-5" style="edgeStyle=orthogonalEdgeStyle;rounded=0;orthogonalLoop=1;jettySize=auto;html=1;exitX=0.5;exitY=1;exitDx=0;exitDy=0;entryX=0.5;entryY=0;entryDx=0;entryDy=0;" edge="1" parent="1" source="Wu3IxM2YiDaM1ognSNvo-6" target="Wu3IxM2YiDaM1ognSNvo-11">
          <mxGeometry relative="1" as="geometry" />
        </mxCell>
        <mxCell id="Wu3IxM2YiDaM1ognSNvo-6" value="&lt;font style=&quot;font-size: 18px&quot;&gt;&lt;b&gt;不基于&lt;br&gt;排放系数&lt;/b&gt;&lt;/font&gt;" style="rounded=1;whiteSpace=wrap;html=1;fillColor=#FF66B3;" vertex="1" parent="1">
          <mxGeometry x="520" y="170" width="120" height="60" as="geometry" />
        </mxCell>
        <mxCell id="Wu3IxM2YiDaM1ognSNvo-10" value="&lt;font style=&quot;font-size: 18px&quot;&gt;&lt;b&gt;基于在线&lt;br&gt;监测数据&lt;/b&gt;&lt;/font&gt;" style="rounded=1;whiteSpace=wrap;html=1;fillColor=#00FF00;" vertex="1" parent="1">
          <mxGeometry x="440" y="280" width="120" height="60" as="geometry" />
        </mxCell>
        <mxCell id="Wu3IxM2YiDaM1ognSNvo-11" value="&lt;span style=&quot;font-size: 18px&quot;&gt;&lt;b&gt;用电量及&lt;br&gt;前年排放总量&lt;/b&gt;&lt;/span&gt;" style="rounded=1;whiteSpace=wrap;html=1;fillColor=#B5739D;" vertex="1" parent="1">
          <mxGeometry x="600" y="280" width="120" height="60" as="geometry" />
        </mxCell>
        <mxCell id="Wu3IxM2YiDaM1ognSNvo-17" style="edgeStyle=orthogonalEdgeStyle;rounded=0;orthogonalLoop=1;jettySize=auto;html=1;exitX=0.5;exitY=1;exitDx=0;exitDy=0;entryX=0.5;entryY=0;entryDx=0;entryDy=0;strokeColor=#D5E8D4;fillColor=#E6E6E6;" edge="1" parent="1" source="Wu3IxM2YiDaM1ognSNvo-14" target="Wu3IxM2YiDaM1ognSNvo-15">
          <mxGeometry relative="1" as="geometry" />
        </mxCell>
        <mxCell id="Wu3IxM2YiDaM1ognSNvo-18" style="edgeStyle=orthogonalEdgeStyle;rounded=0;orthogonalLoop=1;jettySize=auto;html=1;exitX=0.5;exitY=1;exitDx=0;exitDy=0;entryX=0.5;entryY=0;entryDx=0;entryDy=0;strokeColor=#D5E8D4;fillColor=#E6E6E6;" edge="1" parent="1" source="Wu3IxM2YiDaM1ognSNvo-14" target="Wu3IxM2YiDaM1ognSNvo-16">
          <mxGeometry relative="1" as="geometry" />
        </mxCell>
        <mxCell id="Wu3IxM2YiDaM1ognSNvo-14" value="&lt;font style=&quot;font-size: 18px ; background-color: rgb(230 , 230 , 230)&quot; color=&quot;#b3b3b3&quot;&gt;基于&lt;br&gt;排放系数&lt;/font&gt;" style="rounded=1;whiteSpace=wrap;html=1;strokeColor=#D5E8D4;fillColor=#E6E6E6;" vertex="1" parent="1">
          <mxGeometry x="200" y="170" width="120" height="60" as="geometry" />
        </mxCell>
        <mxCell id="Wu3IxM2YiDaM1ognSNvo-15" value="&lt;font color=&quot;#b3b3b3&quot;&gt;&lt;span style=&quot;font-size: 18px ; background-color: rgb(230 , 230 , 230)&quot;&gt;检索文献&lt;br&gt;数据库&lt;/span&gt;&lt;/font&gt;" style="rounded=1;whiteSpace=wrap;html=1;strokeColor=#D5E8D4;fillColor=#E6E6E6;" vertex="1" parent="1">
          <mxGeometry x="280" y="280" width="120" height="60" as="geometry" />
        </mxCell>
        <mxCell id="Wu3IxM2YiDaM1ognSNvo-16" value="&lt;font color=&quot;#b3b3b3&quot;&gt;&lt;span style=&quot;font-size: 18px ; background-color: rgb(230 , 230 , 230)&quot;&gt;基于在线&lt;br&gt;监测数据&lt;/span&gt;&lt;/font&gt;" style="rounded=1;whiteSpace=wrap;html=1;strokeColor=#D5E8D4;fillColor=#E6E6E6;" vertex="1" parent="1">
          <mxGeometry x="120" y="280" width="120" height="60" as="geometry" />
        </mxCell>
      </root>
    </mxGraphModel>
  </diagram>
</mxfile>
